<mxfile host="app.diagrams.net" modified="2023-02-28T07:13:36.332Z" agent="5.0 (Windows)" etag="8NIdc0sDCg2RUq8bdogv" version="20.8.23" type="github">
  <diagram name="ページ1" id="0ta6XOfS64GwJ7nWs06E">
    <mxGraphModel dx="1511" dy="1227" grid="1" gridSize="10" guides="1" tooltips="1" connect="1" arrows="1" fold="1" page="1" pageScale="1" pageWidth="827" pageHeight="1169" math="0" shadow="0">
      <root>
        <mxCell id="0" />
        <mxCell id="1" parent="0" />
        <mxCell id="UnUI35RLRHn_LbMU51n1-19" value="" style="shape=folder;fontStyle=1;spacingTop=10;tabWidth=40;tabHeight=14;tabPosition=left;html=1;rounded=0;" vertex="1" parent="1">
          <mxGeometry x="60" y="790" width="470" height="300" as="geometry" />
        </mxCell>
        <mxCell id="UnUI35RLRHn_LbMU51n1-5" value="MainClass" style="swimlane;fontStyle=0;childLayout=stackLayout;horizontal=1;startSize=26;fillColor=none;horizontalStack=0;resizeParent=1;resizeParentMax=0;resizeLast=0;collapsible=1;marginBottom=0;rounded=0;" vertex="1" parent="1">
          <mxGeometry x="80" y="830" width="140" height="50" as="geometry" />
        </mxCell>
        <mxCell id="UnUI35RLRHn_LbMU51n1-6" value="- location : int" style="text;strokeColor=none;fillColor=none;align=left;verticalAlign=top;spacingLeft=4;spacingRight=4;overflow=hidden;rotatable=0;points=[[0,0.5],[1,0.5]];portConstraint=eastwest;" vertex="1" parent="UnUI35RLRHn_LbMU51n1-5">
          <mxGeometry y="26" width="140" height="24" as="geometry" />
        </mxCell>
        <mxCell id="UnUI35RLRHn_LbMU51n1-14" value="SugorokuClass" style="swimlane;fontStyle=1;align=center;verticalAlign=top;childLayout=stackLayout;horizontal=1;startSize=26;horizontalStack=0;resizeParent=1;resizeParentMax=0;resizeLast=0;collapsible=1;marginBottom=0;rounded=0;" vertex="1" parent="1">
          <mxGeometry x="280" y="830" width="210" height="240" as="geometry" />
        </mxCell>
        <mxCell id="UnUI35RLRHn_LbMU51n1-15" value="- name : String&#xa;- ans :String&#xa;- location :int&#xa;- turnCnt :int&#xa;-int diceNumber&#xa;&#xa;&#xa;" style="text;strokeColor=none;fillColor=none;align=left;verticalAlign=top;spacingLeft=4;spacingRight=4;overflow=hidden;rotatable=0;points=[[0,0.5],[1,0.5]];portConstraint=eastwest;" vertex="1" parent="UnUI35RLRHn_LbMU51n1-14">
          <mxGeometry y="26" width="210" height="84" as="geometry" />
        </mxCell>
        <mxCell id="UnUI35RLRHn_LbMU51n1-16" value="" style="line;strokeWidth=1;fillColor=none;align=left;verticalAlign=middle;spacingTop=-1;spacingLeft=3;spacingRight=3;rotatable=0;labelPosition=right;points=[];portConstraint=eastwest;strokeColor=inherit;rounded=0;" vertex="1" parent="UnUI35RLRHn_LbMU51n1-14">
          <mxGeometry y="110" width="210" height="8" as="geometry" />
        </mxCell>
        <mxCell id="UnUI35RLRHn_LbMU51n1-17" value="-dice() :int&#xa;- getLineCd(value:int) : void&#xa;- getBorder() : void&#xa;+ ready() : void&#xa;+ getName() : String&#xa;+select() : int&#xa;&#xa;" style="text;strokeColor=none;fillColor=none;align=left;verticalAlign=top;spacingLeft=4;spacingRight=4;overflow=hidden;rotatable=0;points=[[0,0.5],[1,0.5]];portConstraint=eastwest;" vertex="1" parent="UnUI35RLRHn_LbMU51n1-14">
          <mxGeometry y="118" width="210" height="122" as="geometry" />
        </mxCell>
        <mxCell id="UnUI35RLRHn_LbMU51n1-70" value="" style="edgeStyle=orthogonalEdgeStyle;rounded=0;orthogonalLoop=1;jettySize=auto;html=1;" edge="1" parent="1" source="UnUI35RLRHn_LbMU51n1-21" target="UnUI35RLRHn_LbMU51n1-23">
          <mxGeometry relative="1" as="geometry">
            <Array as="points">
              <mxPoint x="398" y="110" />
              <mxPoint x="398" y="110" />
            </Array>
          </mxGeometry>
        </mxCell>
        <mxCell id="UnUI35RLRHn_LbMU51n1-21" value="&lt;div&gt;Main&lt;/div&gt;" style="rounded=0;whiteSpace=wrap;html=1;" vertex="1" parent="1">
          <mxGeometry x="355" y="30" width="85" height="40" as="geometry" />
        </mxCell>
        <mxCell id="UnUI35RLRHn_LbMU51n1-23" value="Sugoroku" style="rounded=0;whiteSpace=wrap;html=1;" vertex="1" parent="1">
          <mxGeometry x="340" y="120" width="110" height="50" as="geometry" />
        </mxCell>
        <mxCell id="UnUI35RLRHn_LbMU51n1-28" value="実行" style="text;html=1;strokeColor=none;fillColor=none;align=center;verticalAlign=middle;whiteSpace=wrap;rounded=0;" vertex="1" parent="1">
          <mxGeometry x="450" y="80" width="60" height="30" as="geometry" />
        </mxCell>
        <mxCell id="UnUI35RLRHn_LbMU51n1-32" value="開始確認" style="rounded=0;whiteSpace=wrap;html=1;" vertex="1" parent="1">
          <mxGeometry x="340" y="250" width="120" height="40" as="geometry" />
        </mxCell>
        <mxCell id="UnUI35RLRHn_LbMU51n1-65" style="edgeStyle=orthogonalEdgeStyle;rounded=0;orthogonalLoop=1;jettySize=auto;html=1;entryX=1;entryY=0.5;entryDx=0;entryDy=0;" edge="1" parent="1" source="UnUI35RLRHn_LbMU51n1-72" target="UnUI35RLRHn_LbMU51n1-48">
          <mxGeometry relative="1" as="geometry">
            <mxPoint x="600" y="710" as="targetPoint" />
            <mxPoint x="460" y="389" as="sourcePoint" />
            <Array as="points">
              <mxPoint x="630" y="420" />
              <mxPoint x="630" y="689" />
            </Array>
          </mxGeometry>
        </mxCell>
        <mxCell id="UnUI35RLRHn_LbMU51n1-37" value="" style="endArrow=classic;html=1;rounded=0;exitX=0.5;exitY=1;exitDx=0;exitDy=0;entryX=0.5;entryY=0;entryDx=0;entryDy=0;" edge="1" parent="1" target="UnUI35RLRHn_LbMU51n1-71">
          <mxGeometry width="50" height="50" relative="1" as="geometry">
            <mxPoint x="400" y="410" as="sourcePoint" />
            <mxPoint x="400" y="482" as="targetPoint" />
          </mxGeometry>
        </mxCell>
        <mxCell id="UnUI35RLRHn_LbMU51n1-39" value="" style="endArrow=none;html=1;rounded=0;exitX=0.5;exitY=0;exitDx=0;exitDy=0;entryX=0.5;entryY=1;entryDx=0;entryDy=0;entryPerimeter=0;" edge="1" parent="1" source="UnUI35RLRHn_LbMU51n1-72" target="UnUI35RLRHn_LbMU51n1-32">
          <mxGeometry width="50" height="50" relative="1" as="geometry">
            <mxPoint x="400" y="368" as="sourcePoint" />
            <mxPoint x="400" y="310" as="targetPoint" />
          </mxGeometry>
        </mxCell>
        <mxCell id="UnUI35RLRHn_LbMU51n1-33" value="ユーザー名取得" style="rounded=0;whiteSpace=wrap;html=1;" vertex="1" parent="1">
          <mxGeometry x="335" y="310" width="120" height="40" as="geometry" />
        </mxCell>
        <mxCell id="UnUI35RLRHn_LbMU51n1-68" style="edgeStyle=orthogonalEdgeStyle;rounded=0;orthogonalLoop=1;jettySize=auto;html=1;exitX=0.5;exitY=1;exitDx=0;exitDy=0;entryX=0.6;entryY=-0.05;entryDx=0;entryDy=0;entryPerimeter=0;" edge="1" parent="1">
          <mxGeometry relative="1" as="geometry">
            <mxPoint x="400" y="580" as="sourcePoint" />
            <mxPoint x="400" y="668" as="targetPoint" />
          </mxGeometry>
        </mxCell>
        <mxCell id="UnUI35RLRHn_LbMU51n1-48" value="ゲーム終了" style="rounded=0;whiteSpace=wrap;html=1;" vertex="1" parent="1">
          <mxGeometry x="345" y="670" width="110" height="38" as="geometry" />
        </mxCell>
        <mxCell id="UnUI35RLRHn_LbMU51n1-55" value="" style="endArrow=classic;html=1;rounded=0;exitX=0.5;exitY=1;exitDx=0;exitDy=0;entryX=0.45;entryY=-0.1;entryDx=0;entryDy=0;entryPerimeter=0;" edge="1" parent="1" source="UnUI35RLRHn_LbMU51n1-23" target="UnUI35RLRHn_LbMU51n1-32">
          <mxGeometry width="50" height="50" relative="1" as="geometry">
            <mxPoint x="400" y="180" as="sourcePoint" />
            <mxPoint x="395" y="240" as="targetPoint" />
          </mxGeometry>
        </mxCell>
        <mxCell id="UnUI35RLRHn_LbMU51n1-75" style="edgeStyle=orthogonalEdgeStyle;rounded=0;orthogonalLoop=1;jettySize=auto;html=1;exitX=0;exitY=0.5;exitDx=0;exitDy=0;entryX=0;entryY=0.5;entryDx=0;entryDy=0;" edge="1" parent="1" source="UnUI35RLRHn_LbMU51n1-71" target="UnUI35RLRHn_LbMU51n1-72">
          <mxGeometry relative="1" as="geometry">
            <mxPoint x="160" y="410" as="targetPoint" />
            <Array as="points">
              <mxPoint x="130" y="560" />
              <mxPoint x="130" y="420" />
            </Array>
          </mxGeometry>
        </mxCell>
        <mxCell id="UnUI35RLRHn_LbMU51n1-71" value="ユーザーのコマが10以上" style="rhombus;whiteSpace=wrap;html=1;rounded=0;" vertex="1" parent="1">
          <mxGeometry x="230" y="520" width="340" height="80" as="geometry" />
        </mxCell>
        <mxCell id="UnUI35RLRHn_LbMU51n1-72" value="サイコロを振る" style="rhombus;whiteSpace=wrap;html=1;rounded=0;" vertex="1" parent="1">
          <mxGeometry x="227.5" y="380" width="340" height="80" as="geometry" />
        </mxCell>
        <mxCell id="UnUI35RLRHn_LbMU51n1-77" value="yes" style="text;html=1;strokeColor=none;fillColor=none;align=center;verticalAlign=middle;whiteSpace=wrap;rounded=0;" vertex="1" parent="1">
          <mxGeometry x="400" y="470" width="60" height="30" as="geometry" />
        </mxCell>
        <mxCell id="UnUI35RLRHn_LbMU51n1-78" value="yes" style="text;html=1;strokeColor=none;fillColor=none;align=center;verticalAlign=middle;whiteSpace=wrap;rounded=0;" vertex="1" parent="1">
          <mxGeometry x="400" y="620" width="60" height="30" as="geometry" />
        </mxCell>
        <mxCell id="UnUI35RLRHn_LbMU51n1-79" value="no" style="text;html=1;strokeColor=none;fillColor=none;align=center;verticalAlign=middle;whiteSpace=wrap;rounded=0;" vertex="1" parent="1">
          <mxGeometry x="60" y="480" width="60" height="30" as="geometry" />
        </mxCell>
        <mxCell id="UnUI35RLRHn_LbMU51n1-80" value="no" style="text;html=1;strokeColor=none;fillColor=none;align=center;verticalAlign=middle;whiteSpace=wrap;rounded=0;" vertex="1" parent="1">
          <mxGeometry x="640" y="510" width="60" height="30" as="geometry" />
        </mxCell>
      </root>
    </mxGraphModel>
  </diagram>
</mxfile>
